<svg width="1551" height="83" viewBox="0 0 1551 83" fill="none" xmlns="http://www.w3.org/2000/svg">
<g filter="url(#filter0_b_1_4993)">
<rect x="0.23291" y="0.250427" width="1550.44" height="82.6164" rx="22.031" fill="white" fill-opacity="0.4"/>
<g opacity="0.7">
<path d="M57.376 51.886L52.2286 46.7294L57.376 51.886ZM55.0811 39.8378C55.0811 42.4245 54.0535 44.9053 52.2244 46.7344C50.3953 48.5636 47.9145 49.5911 45.3278 49.5911C42.741 49.5911 40.2603 48.5636 38.4311 46.7344C36.602 44.9053 35.5745 42.4245 35.5745 39.8378C35.5745 37.2511 36.602 34.7703 38.4311 32.9412C40.2603 31.1121 42.741 30.0845 45.3278 30.0845C47.9145 30.0845 50.3953 31.1121 52.2244 32.9412C54.0535 34.7703 55.0811 37.2511 55.0811 39.8378V39.8378Z" stroke="white" stroke-width="2.75388" stroke-linecap="round"/>
</g>
<path opacity="0.7" d="M74.9103 43.9599C74.9605 44.8563 75.1721 45.5842 75.545 46.1436C76.255 47.1906 77.5064 47.7142 79.2993 47.7142C80.1026 47.7142 80.8341 47.5994 81.4938 47.3699C82.7704 46.9253 83.4086 46.1293 83.4086 44.9818C83.4086 44.1212 83.1397 43.508 82.6018 43.1423C82.0568 42.7837 81.2034 42.4718 80.0416 42.2064L77.9009 41.7223C76.5024 41.4068 75.5128 41.059 74.9319 40.6789C73.9278 40.0191 73.4258 39.033 73.4258 37.7206C73.4258 36.3006 73.9171 35.1352 74.8996 34.2245C75.8821 33.3137 77.2734 32.8583 79.0734 32.8583C80.7301 32.8583 82.1357 33.2599 83.2903 34.0631C84.4521 34.8591 85.033 36.1357 85.033 37.8927H83.0214C82.9138 37.0465 82.6843 36.3974 82.3329 35.9456C81.6803 35.1209 80.5723 34.7085 79.0089 34.7085C77.7467 34.7085 76.8395 34.9739 76.2873 35.5046C75.7351 36.0353 75.459 36.652 75.459 37.3548C75.459 38.1294 75.7817 38.6959 76.4271 39.0545C76.8503 39.284 77.8077 39.5709 79.2993 39.9151L81.5154 40.4207C82.5839 40.6645 83.4086 40.998 83.9895 41.4211C84.9936 42.1598 85.4956 43.2319 85.4956 44.6376C85.4956 46.3874 84.8573 47.6389 83.5808 48.3919C82.3114 49.1449 80.8341 49.5214 79.1487 49.5214C77.1837 49.5214 75.6454 49.0194 74.5338 48.0154C73.4222 47.0185 72.8772 45.6667 72.8987 43.9599H74.9103ZM92.746 37.2795C93.5636 37.2795 94.356 37.4732 95.1234 37.8604C95.8908 38.2405 96.4752 38.7354 96.8768 39.345C97.2641 39.9258 97.5223 40.6036 97.6514 41.3781C97.7661 41.9088 97.8235 42.755 97.8235 43.9168H89.379C89.4148 45.0858 89.6909 46.0253 90.2073 46.7353C90.7236 47.4381 91.5233 47.7895 92.6062 47.7895C93.6174 47.7895 94.4242 47.456 95.0266 46.789C95.3708 46.4018 95.6147 45.9535 95.7581 45.4444H97.6621C97.6119 45.8675 97.4434 46.3408 97.1565 46.8643C96.8768 47.3807 96.5613 47.8038 96.2099 48.1337C95.6218 48.7074 94.8939 49.0947 94.0262 49.2955C93.56 49.4102 93.0329 49.4676 92.4448 49.4676C91.0105 49.4676 89.7949 48.9477 88.7981 47.9078C87.8012 46.8608 87.3028 45.3978 87.3028 43.5188C87.3028 41.6685 87.8048 40.1661 88.8088 39.0115C89.8129 37.8569 91.1253 37.2795 92.746 37.2795ZM95.8334 42.3785C95.7545 41.5395 95.5716 40.8689 95.2848 40.3669C94.7541 39.4346 93.8684 38.9684 92.6277 38.9684C91.7384 38.9684 90.9926 39.2912 90.3902 39.9366C89.7878 40.5749 89.4686 41.3888 89.4328 42.3785H95.8334ZM101.696 45.993C101.696 46.5524 101.901 46.9934 102.309 47.3161C102.718 47.6389 103.202 47.8002 103.762 47.8002C104.443 47.8002 105.103 47.6425 105.741 47.3269C106.817 46.8034 107.355 45.9464 107.355 44.7559V43.1961C107.118 43.3467 106.813 43.4722 106.44 43.5726C106.067 43.673 105.701 43.7447 105.343 43.7877L104.17 43.9383C103.468 44.0316 102.94 44.1786 102.589 44.3794C101.994 44.7165 101.696 45.2543 101.696 45.993ZM106.386 42.0773C106.831 42.0199 107.129 41.8335 107.279 41.5179C107.365 41.3458 107.408 41.0984 107.408 40.7757C107.408 40.1159 107.172 39.639 106.698 39.345C106.232 39.0437 105.562 38.8931 104.687 38.8931C103.675 38.8931 102.958 39.1657 102.535 39.7107C102.299 40.0119 102.144 40.4601 102.073 41.0554H100.265C100.301 39.6354 100.76 38.6493 101.642 38.0971C102.532 37.5377 103.561 37.258 104.73 37.258C106.085 37.258 107.186 37.5162 108.032 38.0326C108.871 38.5489 109.291 39.3521 109.291 40.4422V47.0795C109.291 47.2803 109.33 47.4416 109.409 47.5636C109.495 47.6855 109.671 47.7464 109.936 47.7464C110.022 47.7464 110.119 47.7429 110.227 47.7357C110.334 47.7213 110.449 47.7034 110.571 47.6819V49.1126C110.27 49.1987 110.04 49.2525 109.882 49.274C109.725 49.2955 109.51 49.3063 109.237 49.3063C108.57 49.3063 108.086 49.0696 107.785 48.5963C107.627 48.3453 107.516 47.9903 107.451 47.5313C107.057 48.0476 106.49 48.4959 105.752 48.876C105.013 49.2561 104.199 49.4461 103.31 49.4461C102.241 49.4461 101.366 49.1234 100.685 48.4779C100.011 47.8253 99.6738 47.0114 99.6738 46.036C99.6738 44.9675 100.007 44.1391 100.674 43.5511C101.341 42.963 102.216 42.6008 103.299 42.4646L106.386 42.0773ZM112.529 37.5377H114.368V39.5278C114.519 39.1406 114.888 38.6708 115.476 38.1186C116.064 37.5592 116.742 37.2795 117.509 37.2795C117.545 37.2795 117.606 37.2831 117.692 37.2903C117.778 37.2975 117.925 37.3118 118.133 37.3333V39.3772C118.019 39.3557 117.911 39.3414 117.811 39.3342C117.717 39.327 117.613 39.3234 117.499 39.3234C116.523 39.3234 115.774 39.639 115.25 40.2701C114.727 40.894 114.465 41.6148 114.465 42.4323V49.0588H112.529V37.5377ZM124.254 37.2042C125.552 37.2042 126.607 37.5198 127.417 38.1509C128.235 38.782 128.726 39.8685 128.891 41.4104H127.008C126.893 40.7004 126.632 40.1123 126.223 39.6462C125.814 39.1728 125.158 38.9362 124.254 38.9362C123.021 38.9362 122.139 39.5386 121.608 40.7434C121.264 41.5251 121.092 42.4897 121.092 43.6371C121.092 44.7918 121.335 45.7635 121.823 46.5524C122.311 47.3412 123.078 47.7357 124.125 47.7357C124.928 47.7357 125.563 47.4919 126.029 47.0042C126.503 46.5093 126.829 45.8352 127.008 44.9818H128.891C128.676 46.5093 128.138 47.6281 127.277 48.3381C126.417 49.0409 125.316 49.3923 123.975 49.3923C122.469 49.3923 121.267 48.8437 120.371 47.7464C119.474 46.642 119.026 45.2651 119.026 43.6156C119.026 41.5932 119.517 40.0191 120.5 38.8931C121.482 37.7672 122.734 37.2042 124.254 37.2042ZM130.827 33.2025H132.763V39.0975C133.222 38.5166 133.635 38.1079 134 37.8712C134.624 37.4624 135.402 37.258 136.335 37.258C138.006 37.258 139.139 37.8425 139.734 39.0115C140.057 39.6497 140.218 40.5354 140.218 41.6685V49.0588H138.228V41.7976C138.228 40.9514 138.121 40.331 137.905 39.9366C137.554 39.3055 136.894 38.99 135.926 38.99C135.123 38.99 134.395 39.2661 133.742 39.8183C133.09 40.3705 132.763 41.4139 132.763 42.9487V49.0588H130.827V33.2025ZM150.448 43.4327C150.448 44.6663 150.71 45.699 151.234 46.5309C151.757 47.3628 152.596 47.7787 153.751 47.7787C154.647 47.7787 155.382 47.395 155.956 46.6277C156.537 45.8531 156.828 44.7451 156.828 43.3037C156.828 41.8478 156.53 40.7721 155.935 40.0765C155.339 39.3736 154.604 39.0222 153.729 39.0222C152.754 39.0222 151.962 39.3952 151.352 40.141C150.75 40.8868 150.448 41.9841 150.448 43.4327ZM153.364 37.3333C154.246 37.3333 154.984 37.5198 155.58 37.8927C155.924 38.1079 156.315 38.4844 156.752 39.0222V33.2025H158.613V49.0588H156.871V47.456C156.419 48.166 155.884 48.6787 155.268 48.9943C154.651 49.3098 153.945 49.4676 153.149 49.4676C151.865 49.4676 150.753 48.9297 149.814 47.854C148.874 46.7711 148.405 45.3332 148.405 43.5403C148.405 41.8622 148.831 40.4099 149.685 39.1836C150.545 37.9501 151.772 37.3333 153.364 37.3333ZM166.283 37.2795C167.101 37.2795 167.893 37.4732 168.661 37.8604C169.428 38.2405 170.012 38.7354 170.414 39.345C170.801 39.9258 171.06 40.6036 171.189 41.3781C171.303 41.9088 171.361 42.755 171.361 43.9168H162.916C162.952 45.0858 163.228 46.0253 163.745 46.7353C164.261 47.4381 165.061 47.7895 166.143 47.7895C167.155 47.7895 167.961 47.456 168.564 46.789C168.908 46.4018 169.152 45.9535 169.295 45.4444H171.199C171.149 45.8675 170.981 46.3408 170.694 46.8643C170.414 47.3807 170.099 47.8038 169.747 48.1337C169.159 48.7074 168.431 49.0947 167.563 49.2955C167.097 49.4102 166.57 49.4676 165.982 49.4676C164.548 49.4676 163.332 48.9477 162.335 47.9078C161.338 46.8608 160.84 45.3978 160.84 43.5188C160.84 41.6685 161.342 40.1661 162.346 39.0115C163.35 37.8569 164.662 37.2795 166.283 37.2795ZM169.371 42.3785C169.292 41.5395 169.109 40.8689 168.822 40.3669C168.291 39.4346 167.406 38.9684 166.165 38.9684C165.276 38.9684 164.53 39.2912 163.927 39.9366C163.325 40.5749 163.006 41.3888 162.97 42.3785H169.371ZM174.9 45.4444C174.957 46.0898 175.119 46.5846 175.384 46.9289C175.872 47.5528 176.718 47.8648 177.923 47.8648C178.64 47.8648 179.271 47.7106 179.816 47.4022C180.361 47.0867 180.634 46.6026 180.634 45.95C180.634 45.4551 180.415 45.0786 179.977 44.8204C179.698 44.6627 179.145 44.4798 178.321 44.2718L176.782 43.8846C175.8 43.6407 175.076 43.3682 174.609 43.067C173.778 42.5435 173.362 41.8191 173.362 40.894C173.362 39.8039 173.752 38.9218 174.534 38.2477C175.323 37.5736 176.381 37.2365 177.708 37.2365C179.443 37.2365 180.695 37.7457 181.462 38.7641C181.942 39.4095 182.175 40.1051 182.161 40.851H180.332C180.296 40.4135 180.142 40.0155 179.87 39.6569C179.425 39.1477 178.654 38.8931 177.557 38.8931C176.825 38.8931 176.27 39.033 175.89 39.3127C175.517 39.5924 175.33 39.9617 175.33 40.4207C175.33 40.9227 175.578 41.3243 176.072 41.6255C176.359 41.8048 176.782 41.9626 177.342 42.0988L178.622 42.4108C180.013 42.7479 180.946 43.0742 181.419 43.3897C182.172 43.8846 182.548 44.6627 182.548 45.7241C182.548 46.7496 182.158 47.6353 181.376 48.3811C180.601 49.127 179.418 49.4999 177.826 49.4999C176.112 49.4999 174.896 49.1126 174.179 48.3381C173.469 47.5564 173.089 46.5918 173.039 45.4444H174.9ZM185.152 34.3213H187.109V37.5377H188.949V39.119H187.109V46.6384C187.109 47.04 187.246 47.309 187.518 47.4452C187.669 47.5241 187.92 47.5636 188.271 47.5636C188.365 47.5636 188.465 47.5636 188.572 47.5636C188.68 47.5564 188.806 47.5456 188.949 47.5313V49.0588C188.727 49.1234 188.494 49.17 188.25 49.1987C188.013 49.2274 187.755 49.2417 187.475 49.2417C186.572 49.2417 185.958 49.0122 185.636 48.5532C185.313 48.0871 185.152 47.4847 185.152 46.746V39.119H183.592V37.5377H185.152V34.3213ZM190.896 37.5915H192.865V49.0588H190.896V37.5915ZM190.896 33.2563H192.865V35.4508H190.896V33.2563ZM195.801 37.5377H197.641V39.1728C198.186 38.4987 198.763 38.0146 199.373 37.7206C199.982 37.4266 200.66 37.2795 201.406 37.2795C203.041 37.2795 204.146 37.8497 204.719 38.99C205.035 39.6139 205.193 40.5067 205.193 41.6685V49.0588H203.224V41.7976C203.224 41.0948 203.12 40.5283 202.912 40.098C202.568 39.3808 201.944 39.0222 201.04 39.0222C200.581 39.0222 200.205 39.0688 199.911 39.1621C199.38 39.3199 198.914 39.6354 198.512 40.1087C198.19 40.4888 197.978 40.8833 197.878 41.292C197.784 41.6936 197.738 42.271 197.738 43.024V49.0588H195.801V37.5377ZM209.549 45.993C209.549 46.5524 209.754 46.9934 210.162 47.3161C210.571 47.6389 211.055 47.8002 211.615 47.8002C212.296 47.8002 212.956 47.6425 213.594 47.3269C214.67 46.8034 215.208 45.9464 215.208 44.7559V43.1961C214.971 43.3467 214.666 43.4722 214.293 43.5726C213.92 43.673 213.555 43.7447 213.196 43.7877L212.024 43.9383C211.321 44.0316 210.794 44.1786 210.442 44.3794C209.847 44.7165 209.549 45.2543 209.549 45.993ZM214.24 42.0773C214.684 42.0199 214.982 41.8335 215.132 41.5179C215.218 41.3458 215.261 41.0984 215.261 40.7757C215.261 40.1159 215.025 39.639 214.551 39.345C214.085 39.0437 213.415 38.8931 212.54 38.8931C211.529 38.8931 210.812 39.1657 210.388 39.7107C210.152 40.0119 209.998 40.4601 209.926 41.0554H208.119C208.154 39.6354 208.613 38.6493 209.496 38.0971C210.385 37.5377 211.414 37.258 212.583 37.258C213.938 37.258 215.039 37.5162 215.885 38.0326C216.724 38.5489 217.144 39.3521 217.144 40.4422V47.0795C217.144 47.2803 217.183 47.4416 217.262 47.5636C217.348 47.6855 217.524 47.7464 217.789 47.7464C217.876 47.7464 217.972 47.7429 218.08 47.7357C218.187 47.7213 218.302 47.7034 218.424 47.6819V49.1126C218.123 49.1987 217.893 49.2525 217.736 49.274C217.578 49.2955 217.363 49.3063 217.09 49.3063C216.423 49.3063 215.939 49.0696 215.638 48.5963C215.48 48.3453 215.369 47.9903 215.305 47.5313C214.91 48.0476 214.344 48.4959 213.605 48.876C212.866 49.2561 212.052 49.4461 211.163 49.4461C210.094 49.4461 209.219 49.1234 208.538 48.4779C207.864 47.8253 207.527 47.0114 207.527 46.036C207.527 44.9675 207.86 44.1391 208.527 43.5511C209.194 42.963 210.069 42.6008 211.152 42.4646L214.24 42.0773ZM220.715 34.3213H222.673V37.5377H224.513V39.119H222.673V46.6384C222.673 47.04 222.81 47.309 223.082 47.4452C223.233 47.5241 223.484 47.5636 223.835 47.5636C223.928 47.5636 224.029 47.5636 224.136 47.5636C224.244 47.5564 224.369 47.5456 224.513 47.5313V49.0588C224.29 49.1234 224.057 49.17 223.814 49.1987C223.577 49.2274 223.319 49.2417 223.039 49.2417C222.135 49.2417 221.522 49.0122 221.2 48.5532C220.877 48.0871 220.715 47.4847 220.715 46.746V39.119H219.156V37.5377H220.715V34.3213ZM226.46 37.5915H228.428V49.0588H226.46V37.5915ZM226.46 33.2563H228.428V35.4508H226.46V33.2563ZM235.937 47.811C237.221 47.811 238.099 47.3269 238.573 46.3587C239.053 45.3834 239.293 44.3005 239.293 43.11C239.293 42.0343 239.121 41.1594 238.777 40.4852C238.232 39.4238 237.293 38.8931 235.959 38.8931C234.775 38.8931 233.915 39.345 233.377 40.2486C232.839 41.1522 232.57 42.2423 232.57 43.5188C232.57 44.7451 232.839 45.7671 233.377 46.5846C233.915 47.4022 234.768 47.811 235.937 47.811ZM236.012 37.2042C237.497 37.2042 238.752 37.6991 239.777 38.6888C240.803 39.6784 241.316 41.1343 241.316 43.0562C241.316 44.9137 240.864 46.4484 239.96 47.6604C239.057 48.8724 237.655 49.4784 235.754 49.4784C234.169 49.4784 232.911 48.9441 231.978 47.8755C231.046 46.7998 230.58 45.3583 230.58 43.5511C230.58 41.6148 231.071 40.0729 232.054 38.9254C233.036 37.778 234.356 37.2042 236.012 37.2042ZM243.629 37.5377H245.468V39.1728C246.013 38.4987 246.59 38.0146 247.2 37.7206C247.81 37.4266 248.487 37.2795 249.233 37.2795C250.868 37.2795 251.973 37.8497 252.546 38.99C252.862 39.6139 253.02 40.5067 253.02 41.6685V49.0588H251.051V41.7976C251.051 41.0948 250.947 40.5283 250.739 40.098C250.395 39.3808 249.771 39.0222 248.867 39.0222C248.408 39.0222 248.032 39.0688 247.738 39.1621C247.207 39.3199 246.741 39.6354 246.339 40.1087C246.017 40.4888 245.805 40.8833 245.705 41.292C245.612 41.6936 245.565 42.271 245.565 43.024V49.0588H243.629V37.5377ZM257.043 45.4444C257.1 46.0898 257.262 46.5846 257.527 46.9289C258.015 47.5528 258.861 47.8648 260.066 47.8648C260.783 47.8648 261.414 47.7106 261.959 47.4022C262.504 47.0867 262.777 46.6026 262.777 45.95C262.777 45.4551 262.558 45.0786 262.12 44.8204C261.841 44.6627 261.289 44.4798 260.464 44.2718L258.926 43.8846C257.943 43.6407 257.219 43.3682 256.753 43.067C255.921 42.5435 255.505 41.8191 255.505 40.894C255.505 39.8039 255.896 38.9218 256.677 38.2477C257.466 37.5736 258.524 37.2365 259.851 37.2365C261.586 37.2365 262.838 37.7457 263.605 38.7641C264.085 39.4095 264.319 40.1051 264.304 40.851H262.475C262.44 40.4135 262.285 40.0155 262.013 39.6569C261.568 39.1477 260.797 38.8931 259.7 38.8931C258.969 38.8931 258.413 39.033 258.033 39.3127C257.66 39.5924 257.473 39.9617 257.473 40.4207C257.473 40.9227 257.721 41.3243 258.216 41.6255C258.502 41.8048 258.926 41.9626 259.485 42.0988L260.765 42.4108C262.156 42.7479 263.089 43.0742 263.562 43.3897C264.315 43.8846 264.691 44.6627 264.691 45.7241C264.691 46.7496 264.301 47.6353 263.519 48.3811C262.744 49.127 261.561 49.4999 259.969 49.4999C258.255 49.4999 257.039 49.1126 256.322 48.3381C255.612 47.5564 255.232 46.5918 255.182 45.4444H257.043ZM267.316 51.3071C267.811 51.2211 268.159 50.8732 268.36 50.2637C268.467 49.9409 268.521 49.629 268.521 49.3278C268.521 49.2776 268.518 49.231 268.51 49.1879C268.51 49.1521 268.503 49.109 268.489 49.0588H267.316V46.7137H269.618V48.8867C269.618 49.7401 269.446 50.4896 269.102 51.135C268.758 51.7804 268.163 52.1785 267.316 52.3291V51.3071ZM279.171 33.2025H281.107V39.0975C281.566 38.5166 281.979 38.1079 282.344 37.8712C282.968 37.4624 283.746 37.258 284.679 37.258C286.35 37.258 287.483 37.8425 288.078 39.0115C288.401 39.6497 288.562 40.5354 288.562 41.6685V49.0588H286.572V41.7976C286.572 40.9514 286.464 40.331 286.249 39.9366C285.898 39.3055 285.238 38.99 284.27 38.99C283.467 38.99 282.739 39.2661 282.086 39.8183C281.433 40.3705 281.107 41.4139 281.107 42.9487V49.0588H279.171V33.2025ZM296.006 47.811C297.29 47.811 298.168 47.3269 298.642 46.3587C299.122 45.3834 299.362 44.3005 299.362 43.11C299.362 42.0343 299.19 41.1594 298.846 40.4852C298.301 39.4238 297.362 38.8931 296.028 38.8931C294.844 38.8931 293.984 39.345 293.446 40.2486C292.908 41.1522 292.639 42.2423 292.639 43.5188C292.639 44.7451 292.908 45.7671 293.446 46.5846C293.984 47.4022 294.837 47.811 296.006 47.811ZM296.081 37.2042C297.566 37.2042 298.821 37.6991 299.846 38.6888C300.872 39.6784 301.385 41.1343 301.385 43.0562C301.385 44.9137 300.933 46.4484 300.029 47.6604C299.126 48.8724 297.724 49.4784 295.823 49.4784C294.238 49.4784 292.98 48.9441 292.047 47.8755C291.115 46.7998 290.649 45.3583 290.649 43.5511C290.649 41.6148 291.14 40.0729 292.123 38.9254C293.105 37.778 294.425 37.2042 296.081 37.2042ZM304.085 34.3213H306.043V37.5377H307.882V39.119H306.043V46.6384C306.043 47.04 306.179 47.309 306.452 47.4452C306.602 47.5241 306.853 47.5636 307.205 47.5636C307.298 47.5636 307.398 47.5636 307.506 47.5636C307.613 47.5564 307.739 47.5456 307.882 47.5313V49.0588C307.66 49.1234 307.427 49.17 307.183 49.1987C306.946 49.2274 306.688 49.2417 306.408 49.2417C305.505 49.2417 304.892 49.0122 304.569 48.5532C304.246 48.0871 304.085 47.4847 304.085 46.746V39.119H302.525V37.5377H304.085V34.3213ZM314.627 37.2795C315.445 37.2795 316.237 37.4732 317.004 37.8604C317.772 38.2405 318.356 38.7354 318.758 39.345C319.145 39.9258 319.403 40.6036 319.532 41.3781C319.647 41.9088 319.705 42.755 319.705 43.9168H311.26C311.296 45.0858 311.572 46.0253 312.088 46.7353C312.605 47.4381 313.404 47.7895 314.487 47.7895C315.498 47.7895 316.305 47.456 316.908 46.789C317.252 46.4018 317.496 45.9535 317.639 45.4444H319.543C319.493 45.8675 319.324 46.3408 319.038 46.8643C318.758 47.3807 318.442 47.8038 318.091 48.1337C317.503 48.7074 316.775 49.0947 315.907 49.2955C315.441 49.4102 314.914 49.4676 314.326 49.4676C312.892 49.4676 311.676 48.9477 310.679 47.9078C309.682 46.8608 309.184 45.3978 309.184 43.5188C309.184 41.6685 309.686 40.1661 310.69 39.0115C311.694 37.8569 313.006 37.2795 314.627 37.2795ZM317.714 42.3785C317.636 41.5395 317.453 40.8689 317.166 40.3669C316.635 39.4346 315.749 38.9684 314.509 38.9684C313.619 38.9684 312.874 39.2912 312.271 39.9366C311.669 40.5749 311.35 41.3888 311.314 42.3785H317.714ZM322.146 33.2563H324.083V49.0588H322.146V33.2563ZM328.149 45.4444C328.206 46.0898 328.368 46.5846 328.633 46.9289C329.121 47.5528 329.967 47.8648 331.172 47.8648C331.889 47.8648 332.52 47.7106 333.065 47.4022C333.61 47.0867 333.883 46.6026 333.883 45.95C333.883 45.4551 333.664 45.0786 333.227 44.8204C332.947 44.6627 332.395 44.4798 331.57 44.2718L330.032 43.8846C329.049 43.6407 328.325 43.3682 327.859 43.067C327.027 42.5435 326.611 41.8191 326.611 40.894C326.611 39.8039 327.002 38.9218 327.783 38.2477C328.572 37.5736 329.63 37.2365 330.957 37.2365C332.692 37.2365 333.944 37.7457 334.711 38.7641C335.192 39.4095 335.425 40.1051 335.41 40.851H333.582C333.546 40.4135 333.392 40.0155 333.119 39.6569C332.674 39.1477 331.903 38.8931 330.806 38.8931C330.075 38.8931 329.519 39.033 329.139 39.3127C328.766 39.5924 328.579 39.9617 328.579 40.4207C328.579 40.9227 328.827 41.3243 329.322 41.6255C329.608 41.8048 330.032 41.9626 330.591 42.0988L331.871 42.4108C333.262 42.7479 334.195 43.0742 334.668 43.3897C335.421 43.8846 335.798 44.6627 335.798 45.7241C335.798 46.7496 335.407 47.6353 334.625 48.3811C333.85 49.127 332.667 49.4999 331.075 49.4999C329.361 49.4999 328.145 49.1126 327.428 48.3381C326.718 47.5564 326.338 46.5918 326.288 45.4444H328.149Z" fill="white"/>
<g opacity="0.7">
<path d="M646.394 32.3794H632.625C630.09 32.3794 628.035 34.4343 628.035 36.9692V48.4437C628.035 50.9785 630.09 53.0335 632.625 53.0335H646.394C648.929 53.0335 650.984 50.9785 650.984 48.4437V36.9692C650.984 34.4343 648.929 32.3794 646.394 32.3794Z" stroke="white" stroke-width="2.75388" stroke-linecap="round" stroke-linejoin="round"/>
<path d="M628.035 39.264H650.984M634.92 30.0844V34.6742V30.0844ZM644.099 30.0844V34.6742V30.0844Z" stroke="white" stroke-width="2.75388" stroke-linecap="round" stroke-linejoin="round"/>
</g>
<path opacity="0.7" d="M672.629 32.826C674.63 32.826 676.182 33.3531 677.287 34.4073C678.391 35.4615 679.004 36.6592 679.126 38.0003H677.039C676.803 36.9819 676.329 36.1751 675.619 35.5799C674.917 34.9846 673.927 34.687 672.65 34.687C671.094 34.687 669.836 35.2356 668.875 36.3329C667.921 37.423 667.444 39.0975 667.444 41.3566C667.444 43.2068 667.874 44.7093 668.735 45.8639C669.603 47.0114 670.893 47.5851 672.607 47.5851C674.185 47.5851 675.386 46.9791 676.211 45.7671C676.649 45.1288 676.975 44.2897 677.19 43.2499H679.277C679.091 44.9137 678.474 46.3085 677.427 47.4345C676.172 48.7899 674.479 49.4676 672.349 49.4676C670.513 49.4676 668.971 48.9118 667.724 47.8002C666.081 46.3301 665.26 44.0603 665.26 40.9908C665.26 38.6601 665.877 36.7488 667.11 35.2572C668.444 33.6364 670.284 32.826 672.629 32.826ZM681.633 33.2025H683.569V39.0975C684.028 38.5166 684.441 38.1079 684.806 37.8712C685.43 37.4624 686.208 37.258 687.141 37.258C688.812 37.258 689.945 37.8425 690.54 39.0115C690.863 39.6497 691.024 40.5354 691.024 41.6685V49.0588H689.034V41.7976C689.034 40.9514 688.926 40.331 688.711 39.9366C688.36 39.3055 687.7 38.99 686.732 38.99C685.929 38.99 685.201 39.2661 684.548 39.8183C683.895 40.3705 683.569 41.4139 683.569 42.9487V49.0588H681.633V33.2025ZM698.694 37.2795C699.512 37.2795 700.304 37.4732 701.071 37.8604C701.839 38.2405 702.423 38.7354 702.825 39.345C703.212 39.9258 703.47 40.6036 703.599 41.3781C703.714 41.9088 703.771 42.755 703.771 43.9168H695.327C695.363 45.0858 695.639 46.0253 696.155 46.7353C696.672 47.4381 697.471 47.7895 698.554 47.7895C699.565 47.7895 700.372 47.456 700.975 46.789C701.319 46.4018 701.563 45.9535 701.706 45.4444H703.61C703.56 45.8675 703.391 46.3408 703.105 46.8643C702.825 47.3807 702.509 47.8038 702.158 48.1337C701.57 48.7074 700.842 49.0947 699.974 49.2955C699.508 49.4102 698.981 49.4676 698.393 49.4676C696.958 49.4676 695.743 48.9477 694.746 47.9078C693.749 46.8608 693.251 45.3978 693.251 43.5188C693.251 41.6685 693.753 40.1661 694.757 39.0115C695.761 37.8569 697.073 37.2795 698.694 37.2795ZM701.781 42.3785C701.702 41.5395 701.52 40.8689 701.233 40.3669C700.702 39.4346 699.816 38.9684 698.576 38.9684C697.686 38.9684 696.941 39.2912 696.338 39.9366C695.736 40.5749 695.417 41.3888 695.381 42.3785H701.781ZM710.602 37.2042C711.9 37.2042 712.955 37.5198 713.765 38.1509C714.583 38.782 715.074 39.8685 715.239 41.4104H713.356C713.242 40.7004 712.98 40.1123 712.571 39.6462C712.162 39.1728 711.506 38.9362 710.602 38.9362C709.369 38.9362 708.487 39.5386 707.956 40.7434C707.612 41.5251 707.44 42.4897 707.44 43.6371C707.44 44.7918 707.684 45.7635 708.171 46.5524C708.659 47.3412 709.426 47.7357 710.473 47.7357C711.277 47.7357 711.911 47.4919 712.377 47.0042C712.851 46.5093 713.177 45.8352 713.356 44.9818H715.239C715.024 46.5093 714.486 47.6281 713.625 48.3381C712.765 49.0409 711.664 49.3923 710.323 49.3923C708.817 49.3923 707.615 48.8437 706.719 47.7464C705.823 46.642 705.374 45.2651 705.374 43.6156C705.374 41.5932 705.866 40.0191 706.848 38.8931C707.831 37.7672 709.082 37.2042 710.602 37.2042ZM717.132 33.2563H718.993V42.4323L723.963 37.5377H726.437L722.027 41.8514L726.685 49.0588H724.21L720.617 43.2499L718.993 44.7344V49.0588H717.132V33.2563ZM734.322 37.5915H736.291V49.0588H734.322V37.5915ZM734.322 33.2563H736.291V35.4508H734.322V33.2563ZM739.228 37.5377H741.067V39.1728C741.612 38.4987 742.19 38.0146 742.799 37.7206C743.409 37.4266 744.086 37.2795 744.832 37.2795C746.467 37.2795 747.572 37.8497 748.146 38.99C748.461 39.6139 748.619 40.5067 748.619 41.6685V49.0588H746.65V41.7976C746.65 41.0948 746.546 40.5283 746.338 40.098C745.994 39.3808 745.37 39.0222 744.467 39.0222C744.008 39.0222 743.631 39.0688 743.337 39.1621C742.806 39.3199 742.34 39.6354 741.939 40.1087C741.616 40.4888 741.404 40.8833 741.304 41.292C741.211 41.6936 741.164 42.271 741.164 43.024V49.0588H739.228V37.5377Z" fill="white"/>
<g opacity="0.7">
<path d="M885.864 32.3794H872.094C869.559 32.3794 867.504 34.4343 867.504 36.9692V48.4437C867.504 50.9785 869.559 53.0335 872.094 53.0335H885.864C888.398 53.0335 890.453 50.9785 890.453 48.4437V36.9692C890.453 34.4343 888.398 32.3794 885.864 32.3794Z" stroke="white" stroke-width="2.75388" stroke-linecap="round" stroke-linejoin="round"/>
<path d="M867.504 39.264H890.453M874.389 30.0844V34.6742V30.0844ZM883.569 30.0844V34.6742V30.0844Z" stroke="white" stroke-width="2.75388" stroke-linecap="round" stroke-linejoin="round"/>
</g>
<path opacity="0.7" d="M912.101 32.826C914.102 32.826 915.655 33.3531 916.759 34.4073C917.864 35.4615 918.477 36.6592 918.599 38.0003H916.512C916.275 36.9819 915.802 36.1751 915.092 35.5799C914.389 34.9846 913.399 34.687 912.123 34.687C910.567 34.687 909.308 35.2356 908.347 36.3329C907.393 37.423 906.916 39.0975 906.916 41.3566C906.916 43.2068 907.347 44.7093 908.207 45.8639C909.075 47.0114 910.366 47.5851 912.08 47.5851C913.658 47.5851 914.859 46.9791 915.684 45.7671C916.121 45.1288 916.447 44.2897 916.662 43.2499H918.749C918.563 44.9137 917.946 46.3085 916.899 47.4345C915.644 48.7899 913.952 49.4676 911.822 49.4676C909.986 49.4676 908.444 48.9118 907.196 47.8002C905.554 46.3301 904.733 44.0603 904.733 40.9908C904.733 38.6601 905.349 36.7488 906.583 35.2572C907.917 33.6364 909.756 32.826 912.101 32.826ZM921.105 33.2025H923.042V39.0975C923.501 38.5166 923.913 38.1079 924.279 37.8712C924.903 37.4624 925.681 37.258 926.613 37.258C928.284 37.258 929.417 37.8425 930.012 39.0115C930.335 39.6497 930.496 40.5354 930.496 41.6685V49.0588H928.506V41.7976C928.506 40.9514 928.399 40.331 928.184 39.9366C927.832 39.3055 927.172 38.99 926.204 38.99C925.401 38.99 924.673 39.2661 924.02 39.8183C923.368 40.3705 923.042 41.4139 923.042 42.9487V49.0588H921.105V33.2025ZM938.166 37.2795C938.984 37.2795 939.776 37.4732 940.544 37.8604C941.311 38.2405 941.896 38.7354 942.297 39.345C942.684 39.9258 942.943 40.6036 943.072 41.3781C943.187 41.9088 943.244 42.755 943.244 43.9168H934.799C934.835 45.0858 935.111 46.0253 935.628 46.7353C936.144 47.4381 936.944 47.7895 938.027 47.7895C939.038 47.7895 939.845 47.456 940.447 46.789C940.791 46.4018 941.035 45.9535 941.178 45.4444H943.083C943.032 45.8675 942.864 46.3408 942.577 46.8643C942.297 47.3807 941.982 47.8038 941.63 48.1337C941.042 48.7074 940.314 49.0947 939.447 49.2955C938.98 49.4102 938.453 49.4676 937.865 49.4676C936.431 49.4676 935.215 48.9477 934.218 47.9078C933.222 46.8608 932.723 45.3978 932.723 43.5188C932.723 41.6685 933.225 40.1661 934.229 39.0115C935.233 37.8569 936.546 37.2795 938.166 37.2795ZM941.254 42.3785C941.175 41.5395 940.992 40.8689 940.705 40.3669C940.174 39.4346 939.289 38.9684 938.048 38.9684C937.159 38.9684 936.413 39.2912 935.811 39.9366C935.208 40.5749 934.889 41.3888 934.853 42.3785H941.254ZM950.075 37.2042C951.373 37.2042 952.427 37.5198 953.237 38.1509C954.055 38.782 954.546 39.8685 954.711 41.4104H952.829C952.714 40.7004 952.452 40.1123 952.043 39.6462C951.635 39.1728 950.978 38.9362 950.075 38.9362C948.841 38.9362 947.959 39.5386 947.428 40.7434C947.084 41.5251 946.912 42.4897 946.912 43.6371C946.912 44.7918 947.156 45.7635 947.644 46.5524C948.131 47.3412 948.899 47.7357 949.946 47.7357C950.749 47.7357 951.384 47.4919 951.85 47.0042C952.323 46.5093 952.649 45.8352 952.829 44.9818H954.711C954.496 46.5093 953.958 47.6281 953.098 48.3381C952.237 49.0409 951.136 49.3923 949.795 49.3923C948.289 49.3923 947.088 48.8437 946.191 47.7464C945.295 46.642 944.847 45.2651 944.847 43.6156C944.847 41.5932 945.338 40.0191 946.32 38.8931C947.303 37.7672 948.554 37.2042 950.075 37.2042ZM956.604 33.2563H958.466V42.4323L963.435 37.5377H965.91L961.499 41.8514L966.157 49.0588H963.683L960.09 43.2499L958.466 44.7344V49.0588H956.604V33.2563ZM978.367 47.811C979.65 47.811 980.529 47.3269 981.002 46.3587C981.483 45.3834 981.723 44.3005 981.723 43.11C981.723 42.0343 981.551 41.1594 981.207 40.4852C980.662 39.4238 979.722 38.8931 978.388 38.8931C977.205 38.8931 976.344 39.345 975.806 40.2486C975.268 41.1522 975 42.2423 975 43.5188C975 44.7451 975.268 45.7671 975.806 46.5846C976.344 47.4022 977.198 47.811 978.367 47.811ZM978.442 37.2042C979.926 37.2042 981.181 37.6991 982.207 38.6888C983.233 39.6784 983.745 41.1343 983.745 43.0562C983.745 44.9137 983.293 46.4484 982.39 47.6604C981.486 48.8724 980.084 49.4784 978.184 49.4784C976.599 49.4784 975.34 48.9441 974.408 47.8755C973.476 46.7998 973.009 45.3583 973.009 43.5511C973.009 41.6148 973.501 40.0729 974.483 38.9254C975.466 37.778 976.785 37.2042 978.442 37.2042ZM987.994 37.5377V45.1862C987.994 45.7743 988.088 46.2548 988.274 46.6277C988.618 47.3161 989.26 47.6604 990.2 47.6604C991.548 47.6604 992.466 47.058 992.954 45.8531C993.219 45.2077 993.352 44.322 993.352 43.1961V37.5377H995.288V49.0588H993.459L993.481 47.3592C993.23 47.7966 992.918 48.166 992.545 48.4672C991.806 49.0696 990.91 49.3708 989.855 49.3708C988.213 49.3708 987.094 48.8222 986.499 47.7249C986.176 47.1369 986.015 46.3516 986.015 45.3691V37.5377H987.994ZM998.709 34.3213H1000.67V37.5377H1002.51V39.119H1000.67V46.6384C1000.67 47.04 1000.8 47.309 1001.08 47.4452C1001.23 47.5241 1001.48 47.5636 1001.83 47.5636C1001.92 47.5636 1002.02 47.5636 1002.13 47.5636C1002.24 47.5564 1002.36 47.5456 1002.51 47.5313V49.0588C1002.28 49.1234 1002.05 49.17 1001.81 49.1987C1001.57 49.2274 1001.31 49.2417 1001.03 49.2417C1000.13 49.2417 999.516 49.0122 999.193 48.5532C998.87 48.0871 998.709 47.4847 998.709 46.746V39.119H997.149V37.5377H998.709V34.3213Z" fill="white"/>
<g opacity="0.7" clip-path="url(#clip0_1_4993)">
<path d="M1099.79 46.8704C1099.72 45.9064 1099.7 44.9393 1099.73 43.9731L1099.73 44.0156C1100.59 43.1205 1101.13 41.9618 1101.26 40.7247L1101.26 40.7006C1101.65 40.6685 1102.26 40.2898 1102.44 38.789C1102.5 38.5305 1102.48 38.262 1102.38 38.0146C1102.29 37.7672 1102.13 37.5511 1101.92 37.3914L1101.92 37.3891C1102.55 35.4843 1103.87 29.591 1099.48 28.9828C1099.03 28.1911 1097.88 27.7895 1096.38 27.7895C1090.37 27.8996 1089.65 32.3231 1090.96 37.3891C1090.75 37.5503 1090.59 37.7685 1090.5 38.0183C1090.4 38.268 1090.38 38.5389 1090.44 38.7993L1090.44 38.7901C1090.62 40.2887 1091.23 40.6696 1091.62 40.7018C1091.76 41.9526 1092.31 43.1206 1093.2 44.0156C1093.23 44.9987 1093.2 45.9826 1093.13 46.9634L1093.14 46.8704C1091.94 50.0649 1083.93 49.1676 1083.56 55.3283H1109.33C1108.96 49.1676 1100.98 50.0649 1099.79 46.8704H1099.79Z" fill="white"/>
</g>
<path opacity="0.7" d="M1122.85 38.151V36.6665C1124.24 36.5302 1125.22 36.3043 1125.77 35.9888C1126.32 35.666 1126.74 34.9094 1127.01 33.719H1128.54V49.0589H1126.47V38.151H1122.85ZM1140.61 37.5378H1142.45V39.5279C1142.6 39.1407 1142.97 38.6709 1143.55 38.1187C1144.14 37.5593 1144.82 37.2796 1145.59 37.2796C1145.62 37.2796 1145.68 37.2832 1145.77 37.2904C1145.86 37.2976 1146 37.3119 1146.21 37.3334V39.3773C1146.1 39.3558 1145.99 39.3415 1145.89 39.3343C1145.79 39.3271 1145.69 39.3235 1145.58 39.3235C1144.6 39.3235 1143.85 39.6391 1143.33 40.2702C1142.8 40.8941 1142.54 41.6148 1142.54 42.4324V49.0589H1140.61V37.5378ZM1152.46 47.8111C1153.74 47.8111 1154.62 47.327 1155.1 46.3588C1155.58 45.3835 1155.82 44.3006 1155.82 43.1101C1155.82 42.0344 1155.64 41.1594 1155.3 40.4853C1154.76 39.4239 1153.82 38.8932 1152.48 38.8932C1151.3 38.8932 1150.44 39.345 1149.9 40.2487C1149.36 41.1523 1149.09 42.2424 1149.09 43.5189C1149.09 44.7452 1149.36 45.7672 1149.9 46.5847C1150.44 47.4023 1151.29 47.8111 1152.46 47.8111ZM1152.54 37.2043C1154.02 37.2043 1155.28 37.6992 1156.3 38.6888C1157.33 39.6785 1157.84 41.1343 1157.84 43.0563C1157.84 44.9138 1157.39 46.4485 1156.48 47.6605C1155.58 48.8725 1154.18 49.4785 1152.28 49.4785C1150.69 49.4785 1149.43 48.9442 1148.5 47.8756C1147.57 46.7999 1147.1 45.3584 1147.1 43.5512C1147.1 41.6148 1147.59 40.073 1148.58 38.9255C1149.56 37.7781 1150.88 37.2043 1152.54 37.2043ZM1164.72 47.8111C1166.01 47.8111 1166.89 47.327 1167.36 46.3588C1167.84 45.3835 1168.08 44.3006 1168.08 43.1101C1168.08 42.0344 1167.91 41.1594 1167.56 40.4853C1167.02 39.4239 1166.08 38.8932 1164.75 38.8932C1163.56 38.8932 1162.7 39.345 1162.16 40.2487C1161.63 41.1523 1161.36 42.2424 1161.36 43.5189C1161.36 44.7452 1161.63 45.7672 1162.16 46.5847C1162.7 47.4023 1163.55 47.8111 1164.72 47.8111ZM1164.8 37.2043C1166.28 37.2043 1167.54 37.6992 1168.56 38.6888C1169.59 39.6785 1170.1 41.1343 1170.1 43.0563C1170.1 44.9138 1169.65 46.4485 1168.75 47.6605C1167.84 48.8725 1166.44 49.4785 1164.54 49.4785C1162.96 49.4785 1161.7 48.9442 1160.76 47.8756C1159.83 46.7999 1159.37 45.3584 1159.37 43.5512C1159.37 41.6148 1159.86 40.073 1160.84 38.9255C1161.82 37.7781 1163.14 37.2043 1164.8 37.2043ZM1172.42 37.5378H1174.33V39.1729C1174.79 38.6064 1175.2 38.194 1175.58 37.9358C1176.22 37.4984 1176.94 37.2796 1177.75 37.2796C1178.67 37.2796 1179.41 37.5055 1179.97 37.9573C1180.28 38.2155 1180.57 38.5956 1180.83 39.0976C1181.26 38.4809 1181.76 38.0255 1182.34 37.7314C1182.93 37.4302 1183.58 37.2796 1184.3 37.2796C1185.85 37.2796 1186.91 37.839 1187.46 38.9578C1187.77 39.5602 1187.92 40.3706 1187.92 41.3889V49.0589H1185.9V41.0555C1185.9 40.2881 1185.71 39.761 1185.32 39.4741C1184.94 39.1873 1184.48 39.0438 1183.93 39.0438C1183.17 39.0438 1182.51 39.2984 1181.96 39.8076C1181.41 40.3168 1181.14 41.1666 1181.14 42.3571V49.0589H1179.17V41.5395C1179.17 40.7578 1179.08 40.1877 1178.89 39.8291C1178.6 39.2913 1178.05 39.0223 1177.25 39.0223C1176.51 39.0223 1175.85 39.3056 1175.24 39.8722C1174.65 40.4387 1174.35 41.4642 1174.35 42.9488V49.0589H1172.42V37.5378ZM1191.18 51.3072C1191.67 51.2212 1192.02 50.8733 1192.22 50.2638C1192.33 49.941 1192.38 49.6291 1192.38 49.3279C1192.38 49.2777 1192.38 49.231 1192.37 49.188C1192.37 49.1522 1192.36 49.1091 1192.35 49.0589H1191.18V46.7138H1193.48V48.8868C1193.48 49.7402 1193.31 50.4897 1192.96 51.1351C1192.62 51.7805 1192.02 52.1786 1191.18 52.3292V51.3072ZM1202.3 49.0589C1202.37 47.7322 1202.64 46.5776 1203.12 45.5951C1203.6 44.6126 1204.53 43.7197 1205.91 42.9165L1207.98 41.7224C1208.9 41.1846 1209.55 40.7256 1209.93 40.3455C1210.51 39.7502 1210.81 39.0689 1210.81 38.3016C1210.81 37.4051 1210.54 36.6952 1210 36.1716C1209.46 35.6409 1208.75 35.3756 1207.85 35.3756C1206.52 35.3756 1205.61 35.8776 1205.1 36.8816C1204.82 37.4195 1204.67 38.1653 1204.64 39.1191H1202.68C1202.7 37.7781 1202.94 36.6844 1203.42 35.8381C1204.26 34.3465 1205.74 33.6006 1207.86 33.6006C1209.62 33.6006 1210.91 34.0775 1211.72 35.0313C1212.54 35.9852 1212.95 37.0466 1212.95 38.2155C1212.95 39.449 1212.51 40.5033 1211.65 41.3782C1211.15 41.8874 1210.25 42.5041 1208.95 43.2284L1207.47 44.046C1206.77 44.4333 1206.22 44.8026 1205.82 45.154C1205.1 45.7779 1204.65 46.47 1204.46 47.2302H1212.87V49.0589H1202.3ZM1222.91 45.9931C1222.91 46.5525 1223.11 46.9935 1223.52 47.3162C1223.93 47.639 1224.42 47.8003 1224.98 47.8003C1225.66 47.8003 1226.32 47.6425 1226.95 47.327C1228.03 46.8035 1228.57 45.9465 1228.57 44.756V43.1962C1228.33 43.3468 1228.03 43.4723 1227.65 43.5727C1227.28 43.6731 1226.92 43.7448 1226.56 43.7878L1225.38 43.9384C1224.68 44.0317 1224.15 44.1787 1223.8 44.3795C1223.21 44.7165 1222.91 45.2544 1222.91 45.9931ZM1227.6 42.0774C1228.04 42.02 1228.34 41.8336 1228.49 41.518C1228.58 41.3459 1228.62 41.0985 1228.62 40.7758C1228.62 40.116 1228.39 39.6391 1227.91 39.345C1227.45 39.0438 1226.78 38.8932 1225.9 38.8932C1224.89 38.8932 1224.17 39.1658 1223.75 39.7108C1223.51 40.012 1223.36 40.4602 1223.29 41.0555H1221.48C1221.52 39.6355 1221.97 38.6494 1222.86 38.0972C1223.75 37.5378 1224.77 37.2581 1225.94 37.2581C1227.3 37.2581 1228.4 37.5163 1229.25 38.0326C1230.09 38.549 1230.5 39.3522 1230.5 40.4423V47.0796C1230.5 47.2804 1230.54 47.4417 1230.62 47.5637C1230.71 47.6856 1230.88 47.7465 1231.15 47.7465C1231.24 47.7465 1231.33 47.7429 1231.44 47.7358C1231.55 47.7214 1231.66 47.7035 1231.78 47.682V49.1127C1231.48 49.1988 1231.25 49.2526 1231.1 49.2741C1230.94 49.2956 1230.72 49.3063 1230.45 49.3063C1229.78 49.3063 1229.3 49.0697 1229 48.5964C1228.84 48.3454 1228.73 47.9904 1228.67 47.5314C1228.27 48.0477 1227.7 48.496 1226.97 48.8761C1226.23 49.2561 1225.41 49.4462 1224.52 49.4462C1223.46 49.4462 1222.58 49.1235 1221.9 48.478C1221.22 47.8254 1220.89 47.0114 1220.89 46.0361C1220.89 44.9676 1221.22 44.1392 1221.89 43.5512C1222.56 42.9631 1223.43 42.6009 1224.51 42.4647L1227.6 42.0774ZM1234.92 43.4328C1234.92 44.6663 1235.18 45.6991 1235.7 46.531C1236.22 47.3629 1237.06 47.7788 1238.22 47.7788C1239.11 47.7788 1239.85 47.3951 1240.42 46.6278C1241 45.8532 1241.29 44.7452 1241.29 43.3037C1241.29 41.8479 1241 40.7722 1240.4 40.0765C1239.81 39.3737 1239.07 39.0223 1238.2 39.0223C1237.22 39.0223 1236.43 39.3952 1235.82 40.1411C1235.22 40.8869 1234.92 41.9842 1234.92 43.4328ZM1237.83 37.3334C1238.71 37.3334 1239.45 37.5199 1240.05 37.8928C1240.39 38.1079 1240.78 38.4845 1241.22 39.0223V33.2026H1243.08V49.0589H1241.34V47.4561C1240.89 48.1661 1240.35 48.6788 1239.73 48.9944C1239.12 49.3099 1238.41 49.4677 1237.62 49.4677C1236.33 49.4677 1235.22 48.9298 1234.28 47.8541C1233.34 46.7712 1232.87 45.3333 1232.87 43.5404C1232.87 41.8623 1233.3 40.41 1234.15 39.1837C1235.01 37.9502 1236.24 37.3334 1237.83 37.3334ZM1247.89 37.5378V45.1863C1247.89 45.7744 1247.98 46.2548 1248.17 46.6278C1248.51 47.3162 1249.15 47.6605 1250.09 47.6605C1251.44 47.6605 1252.36 47.0581 1252.85 45.8532C1253.11 45.2078 1253.25 44.3221 1253.25 43.1962V37.5378H1255.18V49.0589H1253.35L1253.37 47.3593C1253.12 47.7967 1252.81 48.1661 1252.44 48.4673C1251.7 49.0697 1250.8 49.3709 1249.75 49.3709C1248.11 49.3709 1246.99 48.8223 1246.39 47.725C1246.07 47.1369 1245.91 46.3517 1245.91 45.3692V37.5378H1247.89ZM1258.27 33.2564H1260.21V49.0589H1258.27V33.2564ZM1263.51 34.3214H1265.47V37.5378H1267.31V39.1191H1265.47V46.6385C1265.47 47.0401 1265.6 47.3091 1265.87 47.4453C1266.03 47.5242 1266.28 47.5637 1266.63 47.5637C1266.72 47.5637 1266.82 47.5637 1266.93 47.5637C1267.04 47.5565 1267.16 47.5457 1267.31 47.5314V49.0589C1267.08 49.1235 1266.85 49.1701 1266.61 49.1988C1266.37 49.2275 1266.11 49.2418 1265.83 49.2418C1264.93 49.2418 1264.32 49.0123 1263.99 48.5533C1263.67 48.0872 1263.51 47.4848 1263.51 46.7461V39.1191H1261.95V37.5378H1263.51V34.3214ZM1270.4 45.4445C1270.46 46.0899 1270.62 46.5847 1270.89 46.929C1271.38 47.5529 1272.22 47.8649 1273.43 47.8649C1274.14 47.8649 1274.77 47.7107 1275.32 47.4023C1275.86 47.0867 1276.14 46.6027 1276.14 45.9501C1276.14 45.4552 1275.92 45.0787 1275.48 44.8205C1275.2 44.6628 1274.65 44.4799 1273.82 44.2719L1272.29 43.8846C1271.3 43.6408 1270.58 43.3683 1270.11 43.0671C1269.28 42.5436 1268.87 41.8192 1268.87 40.8941C1268.87 39.804 1269.26 38.9219 1270.04 38.2478C1270.83 37.5737 1271.88 37.2366 1273.21 37.2366C1274.95 37.2366 1276.2 37.7458 1276.97 38.7641C1277.45 39.4096 1277.68 40.1052 1277.67 40.8511H1275.84C1275.8 40.4136 1275.65 40.0156 1275.37 39.657C1274.93 39.1478 1274.16 38.8932 1273.06 38.8932C1272.33 38.8932 1271.77 39.0331 1271.39 39.3128C1271.02 39.5925 1270.83 39.9618 1270.83 40.4208C1270.83 40.9228 1271.08 41.3244 1271.58 41.6256C1271.86 41.8049 1272.29 41.9627 1272.85 42.0989L1274.13 42.4109C1275.52 42.748 1276.45 43.0743 1276.92 43.3898C1277.68 43.8846 1278.05 44.6628 1278.05 45.7242C1278.05 46.7497 1277.66 47.6354 1276.88 48.3812C1276.11 49.1271 1274.92 49.5 1273.33 49.5C1271.62 49.5 1270.4 49.1127 1269.68 48.3382C1268.97 47.5565 1268.59 46.5919 1268.54 45.4445H1270.4Z" fill="white"/>
<path d="M1326.23 41.5588C1326.23 25.5297 1339.22 12.5356 1355.25 12.5356H1499.61C1515.64 12.5356 1528.64 25.5297 1528.64 41.5588C1528.64 57.588 1515.64 70.5821 1499.61 70.5821H1355.25C1339.22 70.5821 1326.23 57.588 1326.23 41.5588Z" fill="white"/>
<path opacity="0.7" d="M1394.51 44.1642C1394.61 44.8886 1394.81 45.43 1395.1 45.7886C1395.64 46.4412 1396.56 46.7675 1397.86 46.7675C1398.65 46.7675 1399.28 46.6815 1399.77 46.5093C1400.69 46.1795 1401.16 45.5663 1401.16 44.6698C1401.16 44.1463 1400.93 43.7411 1400.47 43.4543C1400.01 43.1746 1399.29 42.9271 1398.31 42.712L1396.63 42.3355C1394.98 41.9626 1393.84 41.5574 1393.21 41.1199C1392.14 40.3884 1391.6 39.2446 1391.6 37.6883C1391.6 36.2684 1392.12 35.0886 1393.15 34.1492C1394.19 33.2097 1395.7 32.7399 1397.7 32.7399C1399.37 32.7399 1400.8 33.1846 1401.97 34.0739C1403.16 34.956 1403.78 36.2397 1403.84 37.925H1400.65C1400.59 36.9712 1400.18 36.2935 1399.4 35.8918C1398.89 35.6265 1398.25 35.4938 1397.48 35.4938C1396.62 35.4938 1395.94 35.6659 1395.43 36.0102C1394.92 36.3544 1394.67 36.8349 1394.67 37.4517C1394.67 38.0182 1394.92 38.4413 1395.42 38.721C1395.75 38.9075 1396.43 39.1262 1397.49 39.3772L1400.22 40.0334C1401.42 40.3203 1402.32 40.704 1402.93 41.1845C1403.88 41.9303 1404.35 43.0096 1404.35 44.4224C1404.35 45.8711 1403.8 47.0759 1402.68 48.0369C1401.58 48.9907 1400.02 49.4676 1397.99 49.4676C1395.93 49.4676 1394.3 48.9979 1393.12 48.0584C1391.94 47.1118 1391.35 45.8137 1391.35 44.1642H1394.51ZM1411.18 39.5493C1410.47 39.5493 1409.92 39.7717 1409.53 40.2163C1409.14 40.6609 1408.89 41.2633 1408.79 42.0235H1413.56C1413.51 41.2131 1413.26 40.6 1412.82 40.184C1412.38 39.7609 1411.84 39.5493 1411.18 39.5493ZM1411.18 37.0214C1412.16 37.0214 1413.04 37.2042 1413.82 37.57C1414.6 37.9357 1415.25 38.5131 1415.75 39.3019C1416.21 39.9976 1416.51 40.8044 1416.65 41.7223C1416.73 42.2602 1416.76 43.0347 1416.74 44.0459H1408.72C1408.76 45.2221 1409.13 46.0468 1409.83 46.5201C1410.25 46.8141 1410.76 46.9612 1411.35 46.9612C1411.99 46.9612 1412.5 46.7819 1412.89 46.4233C1413.11 46.2297 1413.3 45.9607 1413.46 45.6165H1416.59C1416.51 46.3121 1416.15 47.0185 1415.51 47.7357C1414.5 48.876 1413.1 49.4461 1411.29 49.4461C1409.8 49.4461 1408.48 48.9656 1407.34 48.0046C1406.2 47.0436 1405.63 45.4802 1405.63 43.3144C1405.63 41.2849 1406.14 39.7286 1407.17 38.6457C1408.2 37.5628 1409.54 37.0214 1411.18 37.0214ZM1425.29 43.3574C1425.09 43.4794 1424.89 43.5798 1424.69 43.6586C1424.5 43.7304 1424.23 43.7985 1423.89 43.863L1423.2 43.9921C1422.55 44.1069 1422.09 44.2467 1421.81 44.4117C1421.34 44.6914 1421.1 45.1252 1421.1 45.7133C1421.1 46.2368 1421.24 46.6169 1421.53 46.8536C1421.83 47.0831 1422.18 47.1978 1422.6 47.1978C1423.26 47.1978 1423.86 47.0042 1424.41 46.6169C1424.97 46.2297 1425.26 45.5233 1425.29 44.4977V43.3574ZM1423.42 41.9267C1423.99 41.855 1424.4 41.7654 1424.64 41.6578C1425.08 41.4713 1425.3 41.1809 1425.3 40.7864C1425.3 40.3059 1425.13 39.976 1424.79 39.7968C1424.46 39.6103 1423.97 39.5171 1423.33 39.5171C1422.6 39.5171 1422.09 39.6964 1421.79 40.0549C1421.57 40.3203 1421.43 40.6789 1421.36 41.1307H1418.4C1418.47 40.1051 1418.75 39.2625 1419.26 38.6027C1420.07 37.57 1421.46 37.0536 1423.44 37.0536C1424.72 37.0536 1425.86 37.3082 1426.86 37.8174C1427.85 38.3266 1428.35 39.2876 1428.35 40.7004V46.0791C1428.35 46.452 1428.36 46.9038 1428.37 47.4345C1428.39 47.8361 1428.46 48.1086 1428.56 48.252C1428.66 48.3955 1428.81 48.5138 1429.01 48.607V49.0588H1425.67C1425.58 48.8222 1425.51 48.5999 1425.48 48.3919C1425.44 48.1839 1425.41 47.9472 1425.39 47.6819C1424.97 48.1409 1424.48 48.5317 1423.93 48.8544C1423.27 49.2345 1422.52 49.4246 1421.69 49.4246C1420.63 49.4246 1419.75 49.1234 1419.06 48.521C1418.37 47.9114 1418.02 47.0508 1418.02 45.9392C1418.02 44.4977 1418.58 43.4543 1419.69 42.8088C1420.3 42.4574 1421.2 42.2064 1422.38 42.0558L1423.42 41.9267ZM1437.45 37.0536C1437.51 37.0536 1437.56 37.0572 1437.59 37.0644C1437.63 37.0644 1437.72 37.068 1437.86 37.0752V40.2163C1437.67 40.1948 1437.5 40.1804 1437.34 40.1733C1437.19 40.1661 1437.07 40.1625 1436.98 40.1625C1435.75 40.1625 1434.92 40.5641 1434.49 41.3673C1434.26 41.8191 1434.14 42.5148 1434.14 43.4543V49.0588H1431.05V37.3333H1433.98V39.3772C1434.45 38.5955 1434.86 38.0612 1435.21 37.7744C1435.79 37.2939 1436.53 37.0536 1437.45 37.0536ZM1446.67 41.5395C1446.61 41.102 1446.47 40.7075 1446.23 40.3561C1445.89 39.8828 1445.35 39.6462 1444.63 39.6462C1443.59 39.6462 1442.89 40.1589 1442.51 41.1845C1442.31 41.7295 1442.21 42.4538 1442.21 43.3574C1442.21 44.218 1442.31 44.9101 1442.51 45.4336C1442.87 46.4089 1443.56 46.8966 1444.57 46.8966C1445.29 46.8966 1445.8 46.703 1446.1 46.3157C1446.4 45.9284 1446.58 45.4264 1446.65 44.8097H1449.78C1449.71 45.742 1449.37 46.6241 1448.77 47.456C1447.81 48.7971 1446.38 49.4676 1444.5 49.4676C1442.61 49.4676 1441.22 48.9082 1440.33 47.7895C1439.45 46.6707 1439 45.2185 1439 43.4327C1439 41.4175 1439.49 39.8505 1440.47 38.7318C1441.46 37.613 1442.81 37.0536 1444.54 37.0536C1446.01 37.0536 1447.21 37.3835 1448.14 38.0433C1449.08 38.7031 1449.64 39.8685 1449.81 41.5395H1446.67ZM1458.4 37.0321C1459.12 37.0321 1459.78 37.1576 1460.37 37.4086C1460.96 37.6596 1461.45 38.0433 1461.83 38.5597C1462.15 38.9971 1462.35 39.4489 1462.42 39.9151C1462.49 40.3741 1462.53 41.1271 1462.53 42.1741V49.0588H1459.4V41.9267C1459.4 41.2956 1459.29 40.7864 1459.07 40.3992C1458.79 39.8541 1458.26 39.5816 1457.48 39.5816C1456.67 39.5816 1456.06 39.8541 1455.63 40.3992C1455.22 40.937 1455.01 41.708 1455.01 42.712V49.0588H1451.95V33.2563H1455.01V38.8609C1455.45 38.1796 1455.97 37.7062 1456.55 37.4409C1457.13 37.1684 1457.75 37.0321 1458.4 37.0321Z" fill="#2659C3"/>
</g>
<defs>
<filter id="filter0_b_1_4993" x="-43.8292" y="-43.8117" width="1638.56" height="170.741" filterUnits="userSpaceOnUse" color-interpolation-filters="sRGB">
<feFlood flood-opacity="0" result="BackgroundImageFix"/>
<feGaussianBlur in="BackgroundImage" stdDeviation="22.031"/>
<feComposite in2="SourceAlpha" operator="in" result="effect1_backgroundBlur_1_4993"/>
<feBlend mode="normal" in="SourceGraphic" in2="effect1_backgroundBlur_1_4993" result="shape"/>
</filter>
<clipPath id="clip0_1_4993">
<rect width="27.5388" height="27.5388" fill="white" transform="translate(1082.18 27.7895)"/>
</clipPath>
</defs>
</svg>
